<svg width="250" height="200" viewBox="0 0 250 200" fill="none" xmlns="http://www.w3.org/2000/svg">
<path fill-rule="evenodd" clip-rule="evenodd" d="M202 68C205.866 68 209 71.134 209 75C209 78.866 205.866 82 202 82H162C165.866 82 169 85.134 169 89C169 92.866 165.866 96 162 96H184C187.866 96 191 99.134 191 103C191 106.866 187.866 110 184 110H173.826C168.952 110 165 113.134 165 117C165 119.577 167 121.911 171 124C174.866 124 178 127.134 178 131C178 134.866 174.866 138 171 138H88C84.134 138 81 134.866 81 131C81 127.134 84.134 124 88 124H49C45.134 124 42 120.866 42 117C42 113.134 45.134 110 49 110H89C92.866 110 96 106.866 96 103C96 99.134 92.866 96 89 96H64C60.134 96 57 92.866 57 89C57 85.134 60.134 82 64 82H104C100.134 82 97 78.866 97 75C97 71.134 100.134 68 104 68H202ZM202 96C205.866 96 209 99.134 209 103C209 106.866 205.866 110 202 110C198.134 110 195 106.866 195 103C195 99.134 198.134 96 202 96Z" fill="#D9D9D9"/>
<rect x="79.6135" y="84.5098" width="87.5729" height="64.8384" rx="1.5" transform="rotate(-4.51669 79.6135 84.5098)" fill="white" stroke="#081836" stroke-width="3"/>
<path d="M88.8427 144L85 101.5C101.5 121 117 135.5 142 141.042L88.8427 144Z" fill="#EBEDF1"/>
<path d="M126 132C136.493 132 145 123.493 145 113C145 106.035 141.251 99.9461 135.667 96.6395C132.834 94.9624 129.528 94 126 94C115.507 94 107 102.507 107 113C107 123.493 115.507 132 126 132ZM113 113C113 105.82 118.82 100 126 100C128.565 100 130.955 100.742 132.969 102.024L115.024 119.969C113.742 117.955 113 115.565 113 113ZM139 113C139 120.18 133.18 126 126 126C123.929 126 121.973 125.516 120.236 124.656L137.656 107.236C138.516 108.973 139 110.929 139 113Z" fill="#EBEDF1" stroke="#081836" stroke-width="2"/>
<path d="M96 82.6465L101 77.6465M103.354 75.5L125.354 53" stroke="black" stroke-linecap="round"/>
<path d="M150.354 78.1465L143 71L125 53" stroke="black" stroke-linecap="round"/>
<circle cx="125.5" cy="53.5" r="3.6" fill="#EBEDF1" stroke="#081836" stroke-width="1.8"/>
</svg>
